<svg width="16" height="17" viewBox="0 0 16 17" fill="none" xmlns="http://www.w3.org/2000/svg">
<g id="Home">
<path id="Rectangle (Stroke)" fill-rule="evenodd" clip-rule="evenodd" d="M8.52152 3.28077C8.17922 3.18809 7.81843 3.18809 7.47613 3.28077C7.11977 3.37726 6.77418 3.63005 5.78864 4.39657L4.05531 5.74472C3.42101 6.23806 3.20806 6.41103 3.05752 6.61456C2.91286 6.81015 2.8051 7.03049 2.73952 7.26476C2.67129 7.50853 2.66549 7.78283 2.66549 8.58639V12.9996C2.66549 13.5133 2.67273 13.6224 2.6942 13.6932C2.75883 13.9062 2.92557 14.073 3.13864 14.1376C3.20942 14.1591 3.31847 14.1663 3.83216 14.1663H4.24883C4.33412 14.1663 4.35265 14.1661 4.36487 14.1655C4.70734 14.1487 4.9812 13.8748 4.99802 13.5323C4.99863 13.5201 4.99883 13.5016 4.99883 13.4163V11.4996C4.99883 9.84278 6.34197 8.49963 7.99883 8.49963C9.65568 8.49963 10.9988 9.84278 10.9988 11.4996V13.4163C10.9988 13.5016 10.999 13.5201 10.9996 13.5323C11.0165 13.8748 11.2903 14.1487 11.6328 14.1655C11.645 14.1661 11.6635 14.1663 11.7488 14.1663H12.1655C12.6792 14.1663 12.7882 14.1591 12.859 14.1376C13.0721 14.073 13.2388 13.9062 13.3035 13.6932C13.3249 13.6224 13.3322 13.5133 13.3322 12.9996V8.58639C13.3322 7.78283 13.3264 7.50853 13.2581 7.26476C13.1926 7.03049 13.0848 6.81015 12.9401 6.61456C12.7896 6.41103 12.5766 6.23806 11.9423 5.74472L10.209 4.39657C9.22348 3.63005 8.87788 3.37726 8.52152 3.28077ZM7.12767 1.99378C7.69817 1.83931 8.29948 1.83931 8.86998 1.99378C9.51884 2.16946 10.0882 2.61272 10.9142 3.25581C10.9514 3.28484 10.9892 3.31427 11.0276 3.3441L12.7609 4.69225C12.7849 4.71089 12.8085 4.72926 12.8319 4.74739C13.3681 5.16417 13.739 5.45248 14.0121 5.8217C14.2532 6.14768 14.4328 6.51491 14.5421 6.90536C14.6659 7.34759 14.6657 7.81741 14.6655 8.49656C14.6655 8.5261 14.6655 8.55604 14.6655 8.58639V12.9996C14.6655 13.0279 14.6655 13.0558 14.6656 13.0835C14.666 13.4644 14.6664 13.7933 14.5794 14.0802C14.3855 14.7194 13.8853 15.2196 13.2461 15.4135C12.9592 15.5005 12.6302 15.5002 12.2494 15.4997C12.2217 15.4997 12.1937 15.4996 12.1655 15.4996L11.7349 15.4996C11.6714 15.4996 11.6169 15.4997 11.5674 15.4972C10.54 15.4468 9.71838 14.6252 9.6679 13.5978C9.66547 13.5482 9.66548 13.4937 9.66549 13.4303L9.66549 11.4996C9.66549 10.5792 8.9193 9.83297 7.99883 9.83297C7.07835 9.83297 6.33216 10.5792 6.33216 11.4996L6.33216 13.4303C6.33218 13.4937 6.33219 13.5482 6.32975 13.5978C6.27928 14.6252 5.4577 15.4468 4.4303 15.4972C4.38074 15.4997 4.32623 15.4996 4.26279 15.4996L3.83216 15.4996C3.80392 15.4996 3.77596 15.4997 3.74828 15.4997C3.36743 15.5002 3.03849 15.5005 2.75159 15.4135C2.11239 15.2196 1.61218 14.7194 1.41828 14.0802C1.33125 13.7933 1.33164 13.4644 1.3321 13.0835C1.33213 13.0558 1.33216 13.0279 1.33216 12.9996V8.58639C1.33216 8.55604 1.33215 8.5261 1.33214 8.49655C1.33191 7.81741 1.33176 7.34759 1.45554 6.90536C1.56483 6.51491 1.74444 6.14768 1.98554 5.8217C2.25862 5.45248 2.62957 5.16416 3.1658 4.74739C3.18912 4.72926 3.21276 4.71089 3.23672 4.69225L4.97006 3.3441C5.00841 3.31427 5.04622 3.28483 5.0835 3.25581C5.90949 2.61272 6.47881 2.16946 7.12767 1.99378Z" fill="#424551"/>
</g>
</svg>
